PathFileType	4	(X/Y/Z)	KinectSkeleton.trc																																																	
DataRate	CameraRate	NumFrames	NumMarkers	Units	OrigDataRate	OrigDataStartFrame	OrigNumFrames																																													
60	60	11	17	mm	60	1	300																																													
Frame#	Time	Neck			ShoulderMid			R.Shoulder			L.Shoulder			R.Elbow			L.Elbow			R.Wrist			L.Wrist			HipCenter			R.Hip			L.Hip			R.Knee			L.Knee			R.Ankle			L.Ankle			R.Foot			L.Foot		
		X1	Y1	Z1	X2	Y2	Z2	X3	Y3	Z3	X4	Y4	Z4	X5	Y5	Z5	X6	Y6	Z6	X7	Y7	Z7	X8	Y8	Z8	X9	Y9	Z9	X10	Y10	Z10	X11	Y11	Z11	X12	Y12	Z12	X13	Y13	Z13	X14	Y14	Z14	X15	Y15	Z15	X16	Y16	Z16	X17	Y17	Z17
																																																				
1	0.08	-2395.493	1508.796	486.638	-2395.493	1508.796	486.638	-2387.521	1433.594	652.938	-2377.326	1432.291	309.845	-2446.183	1154.977	721.961	-2435.331	1152.831	275.015	-2362.625	925.669	734.578	-2334.706	935.168	302.16	-2440.963	951.872	505.662	-2445.418	956.154	590.991	-2436.023	947.123	411.035	-2461.987	541.44	620.574	-2464.425	532.48	383.189	-2502.465	141.684	640.174	-2516.502	138.618	357.964	-2345.099	78.788	698.854	-2333.428	72.683	346.446
2	0.185	-2403.592	1512.615	479.328	-2403.592	1512.615	479.328	-2388.411	1438.375	647.599	-2382.079	1433.792	301.927	-2442.843	1156.79	720.503	-2424.487	1147.836	274.042	-2357.004	925.414	725.763	-2304.257	937.938	304.121	-2439.845	949.831	505.829	-2442.469	955.145	592.039	-2436.936	943.938	410.226	-2463.917	536.644	624.212	-2468.214	525.179	384.115	-2509.42	133.548	647.512	-2522.349	127.386	361.529	-2343.634	80.869	698.043	-2333.774	73.081	345.569
3	0.293	-2400.255	1513.402	478.271	-2400.255	1513.402	478.271	-2390.27	1433.666	645.116	-2376.387	1433.168	301.213	-2448.815	1149.842	705.79	-2419	1148.021	264.944	-2367.164	916.88	713.545	-2309.864	931.714	292.929	-2434.502	949.898	504.112	-2440.292	955.862	590.173	-2428.081	943.285	408.675	-2462.271	537.191	622.806	-2463.168	524.523	383.711	-2509.556	134.016	645.087	-2518.921	126.714	361.392	-2345.15	79.716	698.681	-2329.532	76.127	341.899
4	0.363	-2396.343	1511.662	469.945	-2396.343	1511.662	469.945	-2387.673	1434.012	637.832	-2374.3	1429.782	293.89	-2443.771	1151.338	703.895	-2418.376	1145.064	259.346	-2364.63	917.987	714.329	-2320.917	922.207	271.596	-2430.946	949.199	500.046	-2437.12	955.292	585.947	-2424.099	942.442	404.786	-2460.642	537.597	622.124	-2462.038	524.346	383.166	-2510.354	135.461	647.177	-2519.38	127.185	363.822	-2345.896	80.21	698.728	-2331.625	73.028	341.195
5	0.437	-2395.125	1512.507	461.955	-2395.125	1512.507	461.955	-2385.169	1433.23	629.641	-2374.725	1429.37	285.415	-2444.505	1151.419	699.46	-2416.242	1144.538	243.831	-2363.827	917.949	708.635	-2322.479	919.245	249.689	-2427.801	948.935	492.111	-2432.462	955.271	578.286	-2422.632	941.91	396.546	-2457.396	537.168	619.523	-2463.079	523.007	376.587	-2509.222	134.683	649.192	-2522.527	125.17	358.615	-2343.651	79.634	698.802	-2333.365	72.316	341.391
6	0.514	-2393.057	1511.611	456.537	-2393.057	1511.611	456.537	-2383.612	1434.852	625.526	-2369.476	1424.264	282.497	-2440.502	1152.815	696.247	-2418.516	1143.641	224.196	-2357.643	920.3	708.539	-2325.52	918.003	223.009	-2423.158	948.019	491.647	-2428.913	954.34	577.743	-2416.776	941.01	396.171	-2455.822	536.494	619.596	-2461.303	522.605	375.999	-2508.685	134.203	649.105	-2523.261	125.227	357.906	-2343.281	79.837	699.895	-2333.226	75.327	341.916
7	0.621	-2389.903	1511.244	452.795	-2389.903	1511.244	452.795	-2378.844	1434.634	622.021	-2373.42	1423.105	278.265	-2435.442	1153.188	695.393	-2421.334	1141.23	225.172	-2354.513	920.019	708.589	-2333.536	913.649	216.698	-2420.573	948.015	491.572	-2426.288	954.891	577.635	-2414.236	940.388	396.131	-2454.924	537.146	619.731	-2459.842	522.044	376.309	-2511.026	135.255	649.22	-2523.173	124.841	358.297	-2347.293	76.651	700.766	-2333.798	72.653	341.57
8	0.693	-2389.118	1512.099	447.585	-2389.118	1512.099	447.585	-2373.064	1440.747	617.691	-2372.763	1426.68	271.948	-2432.378	1158.801	686.941	-2422.255	1145.977	214.213	-2355.859	923.983	697.06	-2332.974	918.917	207.01	-2418.041	948.545	481.646	-2421.821	954.582	567.883	-2413.848	941.85	386.012	-2452.986	537.495	614.656	-2457.224	522.94	374.394	-2511.747	136.545	651.211	-2520.402	125.383	365.584	-2346.165	78.891	697.705	-2331.935	72.832	341.325
9	0.773	-2387.248	1512.071	445.43	-2387.248	1512.071	445.43	-2370.526	1440.785	615.601	-2371.386	1425.966	270.014	-2428.573	1158.417	684.56	-2421.535	1145.065	213.414	-2350.994	923.835	693.722	-2332.646	917.756	206.961	-2417.514	948.489	480.736	-2421.205	954.666	566.991	-2413.419	941.639	385.082	-2453.295	537.62	614.554	-2458.446	522.782	373.572	-2512.866	136.74	651.814	-2523.917	125.475	365.043	-2347.573	79.38	699.872	-2335.656	72.079	340.584
10	0.846	-2382.179	1511.34	434.755	-2382.179	1511.34	434.755	-2368.371	1438.286	604.683	-2366.232	1424.757	259.847	-2424.827	1158.359	683.08	-2420.894	1143.446	211.449	-2343.333	925.617	697.472	-2328.346	917.767	213.733	-2417.374	948.917	474.02	-2422.393	955.864	560.069	-2411.808	941.213	378.596	-2451.947	539.402	610.815	-2456.142	522.545	373.911	-2506.026	138.377	650.663	-2522.259	125.651	370.387	-2343.096	79.709	704.257	-2334.682	72.254	342.405
11	0.91	-2379.564	1510.972	430.406	-2379.564	1510.972	430.406	-2364.735	1438.37	600.882	-2361.54	1423.842	255.88	-2415.812	1156.764	678.622	-2416.419	1141.589	210.721	-2332.303	924.59	696.532	-2319.616	917.354	215.877	-2416.563	948.322	474.076	-2421.346	955.817	560.221	-2411.259	940.011	378.544	-2451.688	538.709	610.386	-2456.201	520.775	374.035	-2504.925	136.975	650.408	-2523.985	123.551	370.93	-2339.373	83.121	701.89	-2335.563	72.476	342.237
